<?xml version="1.0"?>
<svg xmlns="http://www.w3.org/2000/svg" xmlns:xlink="http://www.w3.org/1999/xlink" xmlns:svgjs="http://svgjs.com/svgjs" version="1.1" width="512" height="512" x="0" y="0" viewBox="0 0 553.156 553.156" style="enable-background:new 0 0 512 512" xml:space="preserve" class=""><g transform="matrix(0.72,0,0,0.72,77.4419791412353,77.4418408203124)">
<g xmlns="http://www.w3.org/2000/svg">
	<g>
		<path d="M545.326,265.792l-130.92-74.701c-10.44-5.955-18.904-1.041-18.904,10.979V351.08c0,12.02,8.464,16.935,18.904,10.979    l130.92-74.694C555.767,281.404,555.767,271.746,545.326,265.792z" fill="#ffffff" data-original="#000000" style=""/>
		<path d="M138.75,191.091L7.831,265.792c-10.441,5.955-10.441,15.618,0,21.573l130.919,74.7    c10.441,5.955,18.905,1.041,18.905-10.979V202.07C157.648,190.05,149.191,185.136,138.75,191.091z" fill="#ffffff" data-original="#000000" style=""/>
	</g>
</g>
<g xmlns="http://www.w3.org/2000/svg">
</g>
<g xmlns="http://www.w3.org/2000/svg">
</g>
<g xmlns="http://www.w3.org/2000/svg">
</g>
<g xmlns="http://www.w3.org/2000/svg">
</g>
<g xmlns="http://www.w3.org/2000/svg">
</g>
<g xmlns="http://www.w3.org/2000/svg">
</g>
<g xmlns="http://www.w3.org/2000/svg">
</g>
<g xmlns="http://www.w3.org/2000/svg">
</g>
<g xmlns="http://www.w3.org/2000/svg">
</g>
<g xmlns="http://www.w3.org/2000/svg">
</g>
<g xmlns="http://www.w3.org/2000/svg">
</g>
<g xmlns="http://www.w3.org/2000/svg">
</g>
<g xmlns="http://www.w3.org/2000/svg">
</g>
<g xmlns="http://www.w3.org/2000/svg">
</g>
<g xmlns="http://www.w3.org/2000/svg">
</g>
</g></svg>
