<?xml version="1.0" encoding="utf-8"?>
<!-- Generator: Adobe Illustrator 22.1.0, SVG Export Plug-In . SVG Version: 6.00 Build 0)  -->
<svg version="1.1" id="Layer_1" xmlns="http://www.w3.org/2000/svg" xmlns:xlink="http://www.w3.org/1999/xlink" x="0px" y="0px"
	 viewBox="0 0 512 512" style="enable-background:new 0 0 512 512;" xml:space="preserve">
<style type="text/css">
	.st0{fill:#FFFFFF;}
</style>
<path class="st0" d="M138.7,296.2c26.6,0,48.1-11.8,48.1-42.9v-3.6c0-15.4-8.2-23.8-19.4-27.9c9.5-4.4,14.6-17.3,14.6-31.2
	c0-25.7-18.2-34.4-42.4-34.4c-32.7,0-43.3,19.2-43.3,34c0,9.1,1.7,12,15.4,12c11,0,13.9-4.4,13.9-10.8c0-7.4,4.8-9.7,14.1-9.7
	c7.8,0,14.1,2.7,14.1,13.7c0,15.4-7.6,16.3-14.8,16.3c-6.5,0-8.6,5.7-8.6,11.4c0,5.7,2.1,11.4,8.6,11.4c10.4,0,18.2,2.5,18.2,15.2
	v3.6c0,12.4-4.6,17.1-17.5,17.1c-8.6,0-16.9-2.1-16.9-11c0-7.2-3-9.9-15.2-9.9c-10.5,0-14.1,2.3-14.1,10.8
	C93.4,276.2,106,296.2,138.7,296.2z"/>
<path class="st0" d="M256.3,182c8.9,0,16.5,3.8,16.5,11c0,8.7,7.2,10.8,15.4,10.8c9.5,0,13.9-2.8,13.9-12
	c0-15.8-12.7-35.7-44.8-35.7c-27.4,0-48.5,12.2-48.5,44.8v50.4c0,32.7,20.5,44.8,46.7,44.8c26.2,0,46.6-12.2,46.6-44.8v-1.7
	c0-30.4-18.2-39.9-39.9-39.9c-9.1,0-17.7,1.7-23.8,8.4V201C238.4,187.9,245.1,182,256.3,182z M255.3,232.5
	c10.8,0,17.1,5.3,17.1,19.2v1.7c0,13.1-6.3,18.8-16.9,18.8s-17.1-5.7-17.1-18.8V250C238.4,237.5,245.1,232.5,255.3,232.5z"/>
<path class="st0" d="M371.8,235.9c5.9,0,9.5-4,9.5-9.7c0-5.9-3.6-9.5-9.5-9.5c-6.1,0-9.7,3.6-9.7,9.5
	C362.1,231.9,365.7,235.9,371.8,235.9z"/>
<path class="st0" d="M371.6,296.2c26.2,0,46.7-12.2,46.7-44.8V201c0-32.7-20.5-44.8-46.7-44.8c-26.2,0-46.6,12.2-46.6,44.8v50.3
	C325.1,284,345.4,296.2,371.6,296.2z M354.7,201c0-13.1,6.3-19,16.9-19s17.1,5.9,17.1,19v50.4c0,13.1-6.5,19-17.1,19
	s-16.9-5.9-16.9-19V201z"/>
<path class="st0" d="M454.4,156c24.8,0,45-20.2,45-45s-20.2-45-45-45c-24.8,0-45,20.2-45,45S429.5,156,454.4,156z M454.4,96
	c8.3,0,15,6.7,15,15s-6.7,15-15,15c-8.3,0-15-6.7-15-15S446.1,96,454.4,96z"/>
<path class="st0" d="M466.8,212.5c-6.8-4.7-16.2-3-20.9,3.9c-4.7,6.8-3,16.2,3.9,20.9c14.7,10.1,32.2,26.3,32.2,46
	c0,17.9-14.9,36.5-42.1,52.3c-29.7,17.3-72.1,30.1-119.5,36.2c-8.2,1-14,8.6-13,16.8c1,7.6,7.4,13.1,14.9,13.1c0.6,0,1.3,0,1.9-0.1
	c52-6.6,97.3-20.5,130.8-40c37.3-21.7,57-48.8,57-78.3C512,257.3,496.4,232.8,466.8,212.5z"/>
<path class="st0" d="M226.6,340.2c-5.9-5.9-15.4-5.9-21.2,0c-5.9,5.9-5.9,15.4,0,21.2l13.1,13.1c-48-3.4-92-13.4-126.8-28.9
	C52.5,328.1,30,305.4,30,283.3c0-17.7,14.6-36,41-51.7c7.1-4.2,9.5-13.4,5.3-20.6c-4.2-7.1-13.4-9.5-20.6-5.3
	C9.7,233.1,0,263,0,283.3c0,35,28.2,66.9,79.5,89.7c38.9,17.4,88.2,28.3,141.4,31.7l-15.5,15.5c-5.9,5.9-5.9,15.4,0,21.2
	c2.9,2.9,6.8,4.4,10.6,4.4s7.7-1.5,10.6-4.4l40-40c5.9-5.9,5.9-15.4,0-21.2L226.6,340.2z"/>
</svg>
